<?xml version="1.0" standalone="no"?>
<!DOCTYPE svg PUBLIC "-//W3C//DTD SVG 1.1//EN" "http://www.w3.org/Graphics/SVG/1.1/DTD/svg11.dtd">
<svg xmlns="http://www.w3.org/2000/svg" xmlns:xlink="http://www.w3.org/1999/xlink" version="1.0" id="Layer_1" x="0px" y="0px" viewBox="0 0 425 500" style="enable-background:new 0 0 425 500;" xml:space="preserve" width="425" height="500">
<style type="text/css">
	.st0{fill:#FFFFFF;}
</style>
<g>
	<g>
		<path class="st0" d="M412,7.5H9.8v210.1c0.3,10.2,0.7,27.1,4.3,45.2c1.3,6.8,7.2,28.1,15.9,47.4c9.2,20.4,20.1,38.7,34.1,57.6    c16.7,22.6,41.4,50.3,57.4,64.6c10.3,8.5,29.8,24.1,45.8,34c18,11.2,30.4,16.4,40.3,20.6l4.9,2.1l5-2.1    c9.9-4.2,22.2-9.4,40.3-20.6c16.1-10,35.5-25.5,45.7-33.9c16.1-14.3,40.8-42.1,57.6-64.7c14.1-19,24.9-37.3,34.1-57.6    c8.8-19.4,14.6-40.7,15.9-47.4c3.5-18,4-34.8,4.2-44.9l0-210.4H412z M401.7,20.9c0,6,0,150.9,0,156.9c-6,0-154,0-160,0    c0-6,0-151,0-156.9C247.7,20.9,395.8,20.9,401.7,20.9z M183.3,20.9c0,6,0,150.9,0,156.9c-6,0-154,0-160,0c0-6,0-150.9,0-156.9    C29.3,20.9,177.3,20.9,183.3,20.9z M183.3,234.2c0,6,0,215.5,0,225.9c-4-2.3-8.9-5.2-8.9-5.2c-11.1-6.9-27.6-19.1-44.2-32.8    c-15.2-13.5-39.1-40.4-55.3-62.3C61.4,341.6,51,324,42.2,304.6c-9.2-20.3-14.3-41.2-15-44.4c-1.5-7.8-2.4-16.6-3.1-26    C30.9,234.2,177.3,234.2,183.3,234.2z M400.8,234.2c-0.6,5.3-3.1,26-3.1,26c-0.8,4-5.9,24.3-15,44.4c-8.8,19.5-19.2,37-32.6,55.1    c-16.3,22-40.1,48.8-55.5,62.5c-16.4,13.6-32.9,25.9-44,32.7c0,0-5,2.9-8.9,5.2c0-10.4,0-219.9,0-225.9    C247.7,234.2,394.1,234.2,400.8,234.2z"/>
		<path class="st0" d="M359.5,320.2l-37.3-62.1l-1.4,2.7l-12.5,22.8l-14-25.5l-1.5,2.6L257,320.2l19.1,25.5l32.1-55.1l32.1,55.1    L359.5,320.2z"/>
		<path class="st0" d="M99.2,33.3c0,0-15,43.4-16.1,46.8c-1.9,0-55.4,0-55.4,0s41.7,32.8,43.4,34.2c-0.6,2.1-15.3,53.1-15.3,53.1    s43.7-31.4,45.1-32.5c1.6,1.1,41.1,29.6,41.1,29.6l4.1,2.9c0,0-14.7-50.9-15.4-53.1c1.8-1.4,43.5-34.2,43.5-34.2s-53.5,0-55.4,0    c-1.2-3.4-17.8-51.5-17.8-51.5L99.2,33.3z M100.5,134.6L100.5,134.6L100.5,134.6z"/>
	</g>
</g>
</svg>